<svg preserveAspectRatio="none" overflow="visible" style="display: block;" width="734" height="734" viewBox="0 0 734 734" fill="none" xmlns="http://www.w3.org/2000/svg">
<g id="SVG" opacity="0.04">
<path id="Vector" d="M665.13 697.705L631.263 731.572L428.048 528.362L399.655 556.75L540.61 697.705L506.743 731.572L365.787 590.618L224.835 731.572L190.967 697.705L331.918 556.75L303.526 528.358L100.311 731.572L66.4419 697.705L303.526 460.619L365.787 522.879L428.048 460.619L665.13 697.705Z" fill="#C9A27A"/>
<path id="Vector_2" d="M270.953 303.526L208.689 365.787L270.953 428.048L237.084 461.919L33.8687 665.13L8.74996e-06 631.263L203.212 428.048L174.82 399.655L33.8687 540.61L8.74996e-06 506.743L140.951 365.787L8.74996e-06 224.835L33.8687 190.967L174.82 331.918L203.216 303.526L8.74996e-06 100.311L33.8687 66.4419L270.953 303.526Z" fill="#C9A27A"/>
<path id="Vector_3" d="M731.572 100.311L528.358 303.526L556.75 331.918L697.705 190.967L731.572 224.835L590.618 365.787L731.572 506.743L697.705 540.61L556.75 399.655L528.362 428.048L731.572 631.263L697.705 665.13L460.619 428.052L522.879 365.787L460.619 303.526L697.705 66.4419L731.572 100.311Z" fill="#C9A27A"/>
<path id="Vector_4" d="M665.13 33.8687L461.915 237.08L428.052 270.953L365.787 208.689L303.526 270.953L66.4419 33.8687L100.311 8.74996e-06L303.526 203.216L331.918 174.82L190.967 33.8687L224.835 8.74996e-06L365.787 140.951L506.743 8.74996e-06L540.61 33.8687L399.655 174.82L428.048 203.212L631.263 8.74996e-06L665.13 33.8687Z" fill="#C9A27A"/>
</g>
</svg>
